# xmcd
#
# Track frame offsets:
# 150
# 15989
# 34010
# 46275
# 63276
# 80795
# 94968
# 109869
# 127114
# 146742
# 161815
# 178564
# 193976
# 209197
# 224909
#
# Disc length: 3228 seconds
#
#
# Revision: 0
# Processed by: cddbd v1.5.1PL0 Copyright (c) Steve Scherf et al.
# Submitted via: FreeRIP 2.942 
#
DISCID=ee0c9a0f
DTITLE=Magnificos  - o encanto - Magnificos  - o encanto
DYEAR=1996
DGENRE=Country
TTITLE0=01 - Magnificos - arrebenta
TTITLE1=02 - Magnificos - o encanto
TTITLE2=03 - Magnificos - par ou impar
TTITLE3=04 - Magnificos - sem medo de amar
TTITLE4=05 - Magnificos - sou tua crianca
TTITLE5=06 - Magnificos - kiss me baby
TTITLE6=07 - Magnificos - o sonho
TTITLE7=08 - Magnificos - pocao magica
TTITLE8=09 - Magnificos - pout-pourri
TTITLE9=10 - Magnificos - qual e o risco
TTITLE10=11 - Magnificos - amor a tres
TTITLE11=12 - Magnificos - quatro horas da manha
TTITLE12=13 - Magnificos - sair de cena
TTITLE13=14 - Magnificos - qualquer preco
TTITLE14=15 - Magnificos - carta branca
EXTD=
EXTT0=
EXTT1=
EXTT2=
EXTT3=
EXTT4=
EXTT5=
EXTT6=
EXTT7=
EXTT8=
EXTT9=
EXTT10=
EXTT11=
EXTT12=
EXTT13=
EXTT14=
PLAYORDER=
